# xmcd
#
# Track frame offsets: 
#        150
#        10622
#        28015
#        39655
#        56532
#        65970
#        82152
#        100745
#        115157
#        125677
#        140290
#        153017
#        162267
#        173322
#        189030
#
# Disc length: 2699 seconds
#
# Revision: 2
# Processed by: cddbd v1.4PL0 Copyright (c) Steve Scherf et al.
# Submitted via: ExactAudioCopy v0.90b4
#
DISCID=b70a890f
DTITLE=Willie Nelson - Moonlight Becomes You
DYEAR=1993
DGENRE=Country
TTITLE0=December Day
TTITLE1=Moonlight Becomes You
TTITLE2=Afraid
TTITLE3=The Heart of a Clown
TTITLE4=Please Don't Talk About Me When I'm Gone
TTITLE5=Everywhere You Go
TTITLE6=Have I Stayed Away Too Long
TTITLE7=Sentimental Journey
TTITLE8=The World is Waiting for The Sunrise
TTITLE9=You'll Never Know
TTITLE10=I'll Keep On Loving You
TTITLE11=You Just Can't Play a Sad Song On a Banjo
TTITLE12=You Always Hurt the One You Love
TTITLE13=Someday (You'll Want Me to Want You)
TTITLE14=In God's Eyes
EXTD=
EXTT0=
EXTT1=
EXTT2=
EXTT3=
EXTT4=
EXTT5=
EXTT6=
EXTT7=
EXTT8=
EXTT9=
EXTT10=
EXTT11=
EXTT12=
EXTT13=
EXTT14=
PLAYORDER=
